<mxfile host="app.diagrams.net" modified="2023-12-24T10:09:40.412Z" agent="Mozilla/5.0 (Macintosh; Intel Mac OS X 10_15_7) AppleWebKit/605.1.15 (KHTML, like Gecko) Version/17.0 Safari/605.1.15" version="22.1.11" etag="jpMNMFP6eBJ2Z2FZakNj" type="github">
  <diagram name="Page-1" id="l6dxS7nCtbUhm-ElTMN9">
    <mxGraphModel>
      <root>
        <mxCell id="0" />
        <mxCell id="1" parent="0" />
      </root>
    </mxGraphModel>
  </diagram>
</mxfile>
